<?xml version="1.0" encoding="UTF-8"?>
<!-- Generator: Adobe Illustrator 14.0.0, SVG Export Plug-In . SVG Version: 6.00 Build 43363)  -->
<!DOCTYPE svg PUBLIC "-//W3C//DTD SVG 1.1//EN" "http://www.w3.org/Graphics/SVG/1.1/DTD/svg11.dtd">
<svg version="1.1" id="Ebene_2" xmlns="http://www.w3.org/2000/svg" xmlns:xlink="http://www.w3.org/1999/xlink" x="0px" y="0px" width="180.542px" height="85px" viewBox="0 -7.667 180.542 85" enable-background="new 0 -7.667 180.542 85" xml:space="preserve">
<g>
	<g>
		<g>
			<defs>
				<rect id="SVGID_1_" x="-110" y="-14.251" width="305.376" height="431.89"/>
			</defs>
			<clipPath id="SVGID_2_">
				<use xlink:href="#SVGID_1_" overflow="visible"/>
			</clipPath>
			<path clip-path="url(#SVGID_2_)" fill="#FFFFFF" d="M144.91,76.826c19.273,0,34.901-15.626,34.901-34.9     c0-19.275-15.628-34.9-34.901-34.9c-19.276,0-34.899,15.625-34.899,34.9C110.011,61.2,125.634,76.826,144.91,76.826"/>
		</g>
		<g>
			<defs>
				<rect id="SVGID_3_" x="-110" y="-14.251" width="305.376" height="431.89"/>
			</defs>
			<clipPath id="SVGID_4_">
				<use xlink:href="#SVGID_3_" overflow="visible"/>
			</clipPath>
			<path clip-path="url(#SVGID_4_)" fill="#646667" d="M144.91,71.586c16.265,0,29.446-13.184,29.446-29.447     s-13.183-29.446-29.446-29.446s-29.445,13.183-29.445,29.446C115.465,58.402,128.647,71.586,144.91,71.586"/>
		</g>
		<g>
			<defs>
				<rect id="SVGID_5_" x="-110" y="-14.251" width="305.376" height="431.89"/>
			</defs>
			<clipPath id="SVGID_6_">
				<use xlink:href="#SVGID_5_" overflow="visible"/>
			</clipPath>
			<path clip-path="url(#SVGID_6_)" fill="#FFFFFF" d="M144.721,66.646c12.447,0,22.54-10.092,22.54-22.539     c0-12.449-10.093-22.54-22.54-22.54c-12.449,0-22.539,10.09-22.539,22.54C122.182,56.555,132.271,66.646,144.721,66.646"/>
		</g>
	</g>
	<polygon fill="#FFFFFF" points="159.991,53.367 159.991,53.367 99.401,24.709 129.336,-7.195 154.6,39.995  "/>
	<polygon fill="#CA003A" points="107.724,23.572 127.302,1.978 149.224,41.456  "/>
</g>
<g>
	<rect x="0" y="33.499" fill="none" width="123.75" height="44.75"/>
	<path fill="#1A171B" d="M12.851,60.031c-0.144,0.035-0.324,0.144-0.468,0.144c-0.324,0-0.864-1.26-1.044-2.159   c-0.72,0.719-1.979,2.159-4.679,2.159c-3.312,0-5.399-2.159-5.399-5.543c0-6.083,6.551-6.083,9.395-6.083v-1.115   c0-1.621-0.287-2.664-2.556-2.664c-2.016,0-3.996,1.08-4.463,1.08c-0.18,0-0.324-0.217-0.36-0.361l-0.72-2.195   c-0.072-0.145-0.107-0.288-0.107-0.432c0-0.828,3.562-1.692,6.335-1.692c4.5,0,6.19,2.052,6.19,5.795v6.947   c0,3.491,0.937,3.959,0.937,4.68c0,0.144-0.145,0.253-0.324,0.324L12.851,60.031z M10.655,51.5c-0.899,0-5.075-0.288-5.075,2.88   c0,1.404,1.008,2.447,2.376,2.447c1.332,0,2.268-0.937,2.699-1.368V51.5z"/>
	<path fill="#1A171B" d="M24.623,65.826c0,0.504-0.252,0.576-0.685,0.648l-3.022,0.61c-0.108,0.036-0.433,0.106-0.612,0.106   s-0.252-0.144-0.252-0.756V48.188c0-5.074-0.684-4.787-0.684-5.615c0-0.18,0.144-0.323,0.396-0.395l2.736-0.9   c0.216-0.072,0.396-0.108,0.54-0.108c0.468,0,0.72,0.685,1.115,1.872c0.793-0.756,2.195-1.872,4.607-1.872   c3.995,0,6.228,3.131,6.228,9.179c0,6.299-1.944,9.827-6.623,9.827c-2.089,0-2.988-0.54-3.744-0.937V65.826z M24.623,55.893   c0.647,0.359,1.224,0.684,2.627,0.684c2.52,0,3.168-1.801,3.168-6.047c0-3.709-0.685-5.76-2.916-5.76   c-1.512,0-2.375,0.9-2.879,1.369V55.893z"/>
	<path fill="#1A171B" d="M49.498,60.031c-0.145,0.035-0.324,0.144-0.469,0.144c-0.323,0-0.863-1.26-1.044-2.159   c-0.72,0.719-1.979,2.159-4.679,2.159c-3.312,0-5.398-2.159-5.398-5.543c0-6.083,6.551-6.083,9.395-6.083v-1.115   c0-1.621-0.288-2.664-2.556-2.664c-2.017,0-3.996,1.08-4.463,1.08c-0.181,0-0.324-0.217-0.36-0.361l-0.72-2.195   c-0.072-0.145-0.108-0.288-0.108-0.432c0-0.828,3.563-1.692,6.335-1.692c4.5,0,6.191,2.052,6.191,5.795v6.947   c0,3.491,0.936,3.959,0.936,4.68c0,0.144-0.144,0.253-0.324,0.324L49.498,60.031z M47.302,51.5c-0.9,0-5.076-0.288-5.076,2.88   c0,1.404,1.008,2.447,2.376,2.447c1.332,0,2.269-0.937,2.7-1.368V51.5z"/>
	<path fill="#1A171B" d="M61.306,42.753c0.72-0.54,2.016-1.583,3.995-1.583c4.896,0,6.299,4.318,6.299,8.999   c0,6.12-2.627,10.007-7.451,10.007c-2.052,0-2.843-1.008-3.419-1.582c-0.144,0.395-0.504,1.582-1.044,1.582   c-0.18,0-0.359-0.035-0.504-0.07l-2.879-0.722c-0.18-0.034-0.36-0.144-0.36-0.286c0-0.324,0.396-0.648,0.647-1.873   c0.144-0.721,0.144-1.477,0.144-2.231V34.87c0-0.54,0.252-0.54,0.685-0.648l3.022-0.612c0.108,0,0.433-0.108,0.504-0.108   c0.288,0,0.36,0.144,0.36,0.756L61.306,42.753L61.306,42.753z M61.306,55.818c0.216,0.181,0.828,0.757,1.8,0.757   c3.275,0,3.923-3.349,3.923-6.155c0-2.879-0.504-5.65-3.239-5.65c-1.225,0-2.017,0.828-2.483,1.224V55.818z"/>
	<path fill="#1A171B" d="M81.717,59.059c0,0.396-0.072,0.504-0.504,0.504H77.65c-0.432,0-0.504-0.106-0.504-0.504v-13.93h-2.771   c-0.433,0-0.504-0.107-0.504-0.504v-2.34c0-0.396,0.071-0.504,0.504-0.504h6.839c0.432,0,0.504,0.107,0.504,0.504L81.717,59.059   L81.717,59.059z M79.413,39.441c-1.656,0-2.987-1.332-2.987-2.987c0-1.656,1.332-2.952,2.987-2.952c1.62,0,2.952,1.295,2.952,2.952   C82.365,38.109,81.033,39.441,79.413,39.441z"/>
	<path fill="#1A171B" d="M98.348,59.096c-0.107,0.287-0.36,0.467-0.504,0.467H85.857c-0.216,0-0.359-0.144-0.359-0.358v-2.7   l8.278-10.943h-7.271c-0.18,0-0.252-0.215-0.252-0.467v-2.809c0-0.36,0.107-0.504,0.504-0.504h11.411   c0.288,0,0.611,0.144,0.611,0.359v2.809l-8.135,10.835h8.207c0.685,0,0.685,0.252,0.685,0.36c0,0.18-0.108,0.324-0.145,0.396   L98.348,59.096z"/>
</g>
</svg>