<?xml version="1.0" encoding="UTF-8"?>
<!-- Generator: Adobe Illustrator 21.0.0, SVG Export Plug-In . SVG Version: 6.00 Build 0)  -->
<svg version="1.1" id="Layer_1" xmlns="http://www.w3.org/2000/svg" xmlns:xlink="http://www.w3.org/1999/xlink" x="0px" y="0px" viewBox="0 0 595.3 536" style="enable-background:new 0 0 595.3 536;" xml:space="preserve">
<style type="text/css">
	.st0{fill:#2A66B0;}
	.st1{fill:#C9D2DC;}
</style>
<g>
	<polygon class="st0" points="142.9,201.2 142.9,213.8 186.9,240 186.9,201.2  "/>
	<polygon class="st0" points="296.5,261 224.4,217.6 224.4,262.3 298,306 369.9,262.5 369.9,217.5  "/>
	<polygon class="st0" points="407.4,201.2 407.4,239.8 451.4,213.2 451.4,201.2  "/>
</g>
<g>
	<path class="st0" d="M129.5,469.2h-23.1l-0.9-5.9l4.3-0.9v-33l-4.2-0.5v-6h30.5l1.3,13.7h-5.1l-2.9-6.7h-10.8v11.9h10.2v7h-10.2   v13.2l11.4,1.7L129.5,469.2z"/>
	<path class="st0" d="M160.3,464.9l0.1,4.3h-19.3l-1-4.3l4-1.1v-21.5l-3.4,0.3l-0.7-4.5c0.6-0.1,1.3-0.2,2.2-0.4   c0.9-0.2,1.8-0.4,2.8-0.5c2.5-0.5,3.9-0.8,4.3-0.8l2.3,3.5c0.9-1.1,2-2,3.2-2.6c1.2-0.6,2.7-0.9,4.2-0.9c1.6,0,3.1,0.5,4.7,1.4   c1.6,0.9,2.7,2.4,3.3,4.5l-8.1,4.2l-2-3.3c-1.1,0-2.1,0.5-2.9,1.5c-1.2,1.4-1.7,3.2-1.7,5.5v12.5c0,0,0.3,0.2,1,0.4   c0.7,0.2,1.5,0.4,2.4,0.7C157.9,464.3,159.5,464.7,160.3,464.9z"/>
	<path class="st0" d="M185.9,466.2c-2.1,2.1-4.6,3.2-7.5,3.2c-3,0-5.4-0.8-7.2-2.5c-1.6-1.6-2.5-3.6-2.5-5.8s0.5-4.1,1.5-5.4   c1-1.3,2.3-2.4,3.9-3.3c2.9-1.5,6.6-2.3,11-2.4v-5.3c0-0.5-0.3-0.9-1-1.4c-0.7-0.4-1.5-0.6-2.4-0.6c-1.5,0-2.5,0.1-2.8,0.2   l-1.7,4.9l-8.3-3.6c0.9-2.2,2.5-4,4.8-5.5c2.5-1.6,5.1-2.3,8.1-2.3c5.1,0,8.6,1.9,10.5,5.7c0.7,1.3,1,3,1,5.1v15   c0,1,0.4,1.5,1.2,1.5l1-0.1l1.2,3.7c-1.7,1.5-3.5,2.2-5.3,2.2C188.8,469.4,187,468.4,185.9,466.2z M185.1,455.5   c-5.4,0.3-8.1,1.7-8.1,4.4c0,0.8,0.2,1.5,0.7,2.1c0.5,0.6,1.3,1,2.4,1c1.1,0,2.2-0.3,3-1c0.9-0.7,1.5-1.4,1.9-2.1V455.5z"/>
	<path class="st0" d="M204.9,458.8c-3.5-2.2-5.3-5.5-5.3-9.8c0-3.8,1.4-7,4.2-9.4c2.5-2.2,5.5-3.3,8.9-3.3c3.4,0,6.3,1,8.8,2.9   l7.3-3.7l1.5,0.2l0.7,6.6l-6.2,0.7c0.9,1.8,1.4,3.7,1.4,5.8c0,2.1-0.4,3.9-1.2,5.4c-0.8,1.5-1.8,2.8-3,3.8c-2.5,2-5.5,2.9-9.2,2.9   H212c-0.3,0-0.5,0-0.8-0.1l-1.2,1.8l0.1,0.9l6.8,1.4c7,1.5,10.5,4.6,10.5,9.5c0,3.9-1.5,7-4.6,9.4c-2.9,2.2-6.5,3.3-11,3.3   c-3.9,0-7-1-9.4-2.9c-2.3-1.9-3.5-4.2-3.5-7.1c0-3.7,1.7-6.6,5.1-8.6c-1.1-1.2-1.6-2.7-1.6-4.7   C202.4,462.1,203.3,460.4,204.9,458.8z M208.8,471.4c-1.7,1.1-2.6,2.4-2.6,3.9c0,1.7,1.3,2.9,3.8,3.5c1,0.3,2.1,0.4,3.2,0.4   c1.2,0,2.2-0.1,3.1-0.3c0.9-0.2,1.7-0.4,2.4-0.7c1.6-0.7,2.3-1.5,2.3-2.6c0-0.7-0.4-1.2-1.2-1.5c-0.8-0.4-1.8-0.7-2.9-0.9   c-1.2-0.3-2.5-0.5-3.9-0.8C211.5,472.2,210.1,471.9,208.8,471.4z M212.9,442.6c-2.5,0-4,1.2-4.7,3.7c-0.2,0.7-0.3,1.7-0.3,2.9   c0,1.2,0.4,2.4,1.2,3.6c0.8,1.2,2.1,1.8,3.8,1.8c1.8,0,3-0.6,3.8-1.8c0.8-1.2,1.2-2.4,1.2-3.6c0-1.2-0.1-2.2-0.3-2.9   c-0.2-0.7-0.5-1.4-0.9-1.9C215.9,443.2,214.6,442.6,212.9,442.6z"/>
	<path class="st0" d="M233.2,463.3l4.3-0.9v-33l-4.2-0.5V423h11.9c12.5,0,20.6,4.2,24.1,12.7c1.2,2.8,1.7,6.1,1.7,9.8   c0,7.6-1.9,13.4-5.8,17.5c-3.9,4.1-9.6,6.1-17.2,6.1h-14L233.2,463.3z M246.3,462.1l1.3,0.1c4.7,0,8.3-1.4,10.7-4.2   c2.4-2.8,3.6-6.9,3.6-12.2c0-5.3-1.3-9.3-4-11.9c-2.7-2.6-6.6-3.9-11.6-3.9V462.1z"/>
	<path class="st0" d="M283.6,455.9c0.6,4.8,3.3,7.2,8.1,7.2c2,0,3.7-0.4,4.9-1.2c1.2-0.8,2.3-1.6,3.1-2.3l1.5,5.8   c-1.2,1.6-3.6,2.9-7.1,3.6c-1.2,0.3-2.6,0.4-4.2,0.4c-1.7,0-3.4-0.3-5.2-1c-1.8-0.7-3.4-1.7-4.8-3c-3.2-3-4.7-7.1-4.7-12.2   c0-5.4,1.6-9.7,4.8-12.8c2.7-2.7,6-4,10.1-4c3.1,0,5.7,0.7,7.8,2.2c2.4,1.7,3.6,4,3.6,7c0,3.5-1.4,6.2-4.3,8   c-2.6,1.6-6,2.5-10.2,2.5h-1.8C284.6,456,284.1,456,283.6,455.9z M283.7,450.3c0.2,0,0.6,0.1,1,0.1h1.2c3.3,0,5.5-0.8,6.8-2.4   c0.4-0.6,0.7-1.3,0.7-2.3c0-1-0.3-1.7-0.9-2.2c-0.6-0.5-1.3-0.8-2.1-0.8c-0.8,0-1.6,0.2-2.4,0.6c-0.8,0.4-1.4,1-2,1.7   C284.6,446.4,283.9,448.2,283.7,450.3z"/>
	<path class="st0" d="M305.3,438l9.9-1.7l2.3,2.5c0.8-0.6,2-1.2,3.4-1.7c1.4-0.5,2.9-0.7,4.3-0.7c1.4,0,2.8,0.2,4,0.5   c1.2,0.4,2.3,0.9,3.3,1.6c2.1,1.6,3.1,3.8,3.1,6.7v19.1l3.7,0.6l-0.1,4.3h-15v-4.3l3.3-0.7V447c0-2.8-1.4-4.1-4.1-4.1   c-1.8,0-3.5,0.6-5.1,1.8c-0.4,0.3-0.6,0.5-0.7,0.7v18.8l3.8,0.8l-0.1,4.2h-14.8l-0.7-4.3l3.7-0.9v-21.5H306L305.3,438z"/>
	<path class="st0" d="M361.8,461.1c0.7-0.4,1.3-1,1.7-1.7c0.4-0.7,0.6-1.5,0.6-2.4c0-0.9-0.2-1.7-0.5-2.4c-0.3-0.6-0.9-1.2-1.6-1.8   c-0.8-0.7-2.6-1.6-5.1-2.8c-2.6-1.2-4.6-2.2-6.1-3c-1.5-0.8-2.8-1.7-3.9-2.7c-2.3-2.3-3.5-5.2-3.5-8.8c0-3.7,1.5-6.8,4.5-9.2   c2.9-2.2,6.6-3.3,11.1-3.3c4.2,0,8.4,0.6,12.7,1.8l1,12.7h-5.6l-3.3-7.1c-1.7-0.3-3.5-0.4-5.3-0.4c-1.8,0-3.3,0.5-4.4,1.5   c-1.1,1-1.6,2.1-1.6,3.2s0.3,2.1,0.9,2.8c0.6,0.7,1.3,1.3,2.2,1.8c1.1,0.7,2.8,1.6,5.2,2.7c2.4,1.1,4.4,2.2,5.9,3.1   c1.5,0.9,2.7,1.9,3.6,3c1.9,2.1,2.9,4.5,2.9,7.3c0,2.8-0.5,5-1.5,6.8c-1,1.7-2.3,3.2-3.8,4.3c-2.9,2.1-6.7,3.1-11.4,3.1   c-4.1,0-8.6-1-13.6-3l1.3-12.9l5.6,0.5l0.5,7.4c0.6,0.1,1.4,0.3,2.4,0.6c1,0.3,2.1,0.4,3.2,0.4c1.2,0,2.2-0.1,3.1-0.3   C360.2,461.9,361.1,461.6,361.8,461.1z"/>
	<path class="st0" d="M382,458.2l0.1-15.8h-5.1l-1-5.4l0.5-0.7h5.7c0-2.7,0.1-5.1,0.1-7.2c0-2.1,0-3.4,0.1-4.1l7.2-1.5l0.6,1.1v11.7   h6.8c0.2,0,0.3,0.1,0.3,0.4v5.7h-7.1v17.4c0,1.4,0.2,2.2,0.5,2.6c0.4,0.3,0.9,0.5,1.5,0.5c1.3,0,2.8-0.6,4.4-1.9   c0,0.2,0.2,0.5,0.3,1c0.2,0.5,0.4,1,0.5,1.5c0.4,1.5,0.7,2.4,0.8,2.9c-0.6,0.7-1.7,1.3-3.1,2c-1.5,0.7-2.9,1-4.3,1   c-1.4,0-2.6-0.1-3.6-0.4c-1-0.3-1.9-0.8-2.6-1.5c-1.7-1.6-2.6-4.1-2.6-7.6V458.2z"/>
	<path class="st0" d="M418.1,466.2c-2.1,2.1-4.6,3.2-7.5,3.2c-3,0-5.4-0.8-7.2-2.5c-1.6-1.6-2.5-3.6-2.5-5.8s0.5-4.1,1.5-5.4   c1-1.3,2.3-2.4,3.9-3.3c2.9-1.5,6.6-2.3,11-2.4v-5.3c0-0.5-0.3-0.9-1-1.4c-0.7-0.4-1.5-0.6-2.4-0.6c-1.5,0-2.5,0.1-2.8,0.2   l-1.7,4.9l-8.3-3.6c0.9-2.2,2.5-4,4.8-5.5c2.5-1.6,5.1-2.3,8.1-2.3c5.1,0,8.6,1.9,10.5,5.7c0.7,1.3,1,3,1,5.1v15   c0,1,0.4,1.5,1.2,1.5l1-0.1l1.2,3.7c-1.7,1.5-3.5,2.2-5.3,2.2C421,469.4,419.2,468.4,418.1,466.2z M417.3,455.5   c-5.4,0.3-8.1,1.7-8.1,4.4c0,0.8,0.2,1.5,0.7,2.1c0.5,0.6,1.3,1,2.4,1c1.1,0,2.2-0.3,3-1c0.9-0.7,1.5-1.4,1.9-2.1V455.5z"/>
	<path class="st0" d="M449.1,466.2c-2.1,2.1-4.6,3.2-7.5,3.2c-3,0-5.4-0.8-7.2-2.5c-1.6-1.6-2.5-3.6-2.5-5.8s0.5-4.1,1.5-5.4   c1-1.3,2.3-2.4,3.9-3.3c2.9-1.5,6.6-2.3,11-2.4v-5.3c0-0.5-0.3-0.9-1-1.4c-0.7-0.4-1.5-0.6-2.4-0.6c-1.5,0-2.5,0.1-2.8,0.2   l-1.7,4.9l-8.3-3.6c0.9-2.2,2.5-4,4.8-5.5c2.5-1.6,5.1-2.3,8.1-2.3c5.1,0,8.6,1.9,10.5,5.7c0.7,1.3,1,3,1,5.1v15   c0,1,0.4,1.5,1.2,1.5l1-0.1l1.2,3.7c-1.7,1.5-3.5,2.2-5.3,2.2C451.9,469.4,450.2,468.4,449.1,466.2z M448.3,455.5   c-5.4,0.3-8.1,1.7-8.1,4.4c0,0.8,0.2,1.5,0.7,2.1c0.5,0.6,1.3,1,2.4,1c1.1,0,2.2-0.3,3-1c0.9-0.7,1.5-1.4,1.9-2.1V455.5z"/>
	<path class="st0" d="M466.5,458.2l0.1-15.8h-5.1l-1-5.4l0.5-0.7h5.7c0-2.7,0.1-5.1,0.1-7.2c0-2.1,0-3.4,0.1-4.1l7.2-1.5l0.6,1.1   v11.7h6.8c0.2,0,0.3,0.1,0.3,0.4v5.7h-7.1v17.4c0,1.4,0.2,2.2,0.5,2.6c0.4,0.3,0.9,0.5,1.5,0.5c1.3,0,2.8-0.6,4.4-1.9   c0,0.2,0.2,0.5,0.3,1c0.2,0.5,0.4,1,0.5,1.5c0.4,1.5,0.7,2.4,0.8,2.9c-0.6,0.7-1.7,1.3-3.1,2c-1.4,0.7-2.9,1-4.3,1   c-1.4,0-2.6-0.1-3.6-0.4c-1-0.3-1.9-0.8-2.6-1.5c-1.7-1.6-2.6-4.1-2.6-7.6V458.2z"/>
	<path class="st0" d="M486,464.9"/>
</g>
<path class="st1" d="M499.7,201.2v-38.5h-26.2L298.5,53L119,162.7H93.7v38.5h11.7v166.5H93.7v38.5h406v-38.5h-10.8V201.2H499.7z   M369.9,201.2v166.5H224.4V201.2H369.9z M296,98l110.5,64.7H190.8L296,98z M142.9,201.2h44v166.5h-44V201.2z M451.4,367.7h-44V201.2  h44V367.7z"/>
</svg>