<?xml version="1.0" encoding="UTF-8" standalone="no"?>
<!DOCTYPE svg PUBLIC "-//W3C//DTD SVG 1.1//EN" "http://www.w3.org/Graphics/SVG/1.1/DTD/svg11.dtd">
<svg width="100%" height="100%" viewBox="0 0 200 200" version="1.1" xmlns="http://www.w3.org/2000/svg" xmlns:xlink="http://www.w3.org/1999/xlink" xml:space="preserve" xmlns:serif="http://www.serif.com/" style="fill-rule:evenodd;clip-rule:evenodd;stroke-linecap:round;stroke-linejoin:round;stroke-miterlimit:10;">
    <g transform="matrix(2.18596e-17,-0.643005,-1,2.18596e-17,102.665,348.248)">
        <rect x="237.03" y="21.31" width="59.62" height="37.28" style="fill:rgb(176,224,230);stroke:rgb(102,102,102);stroke-width:0.89px;"/>
    </g>
    <g transform="matrix(2.18596e-17,-0.643005,-1,2.18596e-17,139.95,372.223)">
        <rect x="274.315" y="21.305" width="59.62" height="37.29" style="fill:rgb(176,224,230);stroke:rgb(102,102,102);stroke-width:0.89px;"/>
    </g>
    <g transform="matrix(2.18596e-17,-0.643005,-1,2.18596e-17,177.235,396.197)">
        <rect x="311.6" y="21.31" width="59.62" height="37.28" style="fill:rgb(176,224,230);stroke:rgb(102,102,102);stroke-width:0.89px;"/>
    </g>
    <g transform="matrix(2.18596e-17,-0.643005,-1,2.18596e-17,125.005,285.941)">
        <rect x="199.75" y="80.93" width="59.62" height="37.28" style="fill:rgb(176,224,230);stroke:rgb(102,102,102);stroke-width:0.89px;"/>
    </g>
    <g transform="matrix(2.18596e-17,-0.643005,-1,2.18596e-17,162.285,309.912)">
        <rect x="237.03" y="80.93" width="59.62" height="37.28" style="fill:rgb(176,224,230);stroke:rgb(102,102,102);stroke-width:0.89px;"/>
    </g>
    <g transform="matrix(2.18596e-17,-0.643005,-1,2.18596e-17,199.57,333.887)">
        <rect x="274.315" y="80.925" width="59.62" height="37.29" style="fill:rgb(176,224,230);stroke:rgb(102,102,102);stroke-width:0.89px;"/>
    </g>
    <g transform="matrix(2.18596e-17,-0.643005,-1,2.18596e-17,236.855,357.861)">
        <rect x="311.6" y="80.93" width="59.62" height="37.28" style="fill:rgb(176,224,230);stroke:rgb(102,102,102);stroke-width:0.89px;"/>
    </g>
    <g transform="matrix(2.18596e-17,-0.643005,-1,2.18596e-17,184.615,247.612)">
        <rect x="199.75" y="140.54" width="59.62" height="37.28" style="fill:rgb(176,224,230);stroke:rgb(102,102,102);stroke-width:0.89px;"/>
    </g>
    <g transform="matrix(2.18596e-17,-0.643005,-1,2.18596e-17,221.895,271.583)">
        <rect x="237.03" y="140.54" width="59.62" height="37.28" style="fill:rgb(176,224,230);stroke:rgb(102,102,102);stroke-width:0.89px;"/>
    </g>
    <g transform="matrix(2.18596e-17,-0.643005,-1,2.18596e-17,259.18,295.557)">
        <rect x="274.315" y="140.535" width="59.62" height="37.29" style="fill:rgb(176,224,230);stroke:rgb(102,102,102);stroke-width:0.89px;"/>
    </g>
    <g transform="matrix(2.18596e-17,-0.643005,-1,2.18596e-17,296.465,319.532)">
        <rect x="311.6" y="140.54" width="59.62" height="37.28" style="fill:rgb(176,224,230);stroke:rgb(102,102,102);stroke-width:0.89px;"/>
    </g>
    <g transform="matrix(2.18596e-17,-0.643005,-1,2.18596e-17,333.745,343.503)">
        <rect x="348.88" y="140.54" width="59.62" height="37.28" style="fill:rgb(176,224,230);stroke:rgb(102,102,102);stroke-width:0.89px;"/>
    </g>
    <g transform="matrix(2.18596e-17,-0.643005,-1,2.18596e-17,281.515,209.276)">
        <rect x="199.75" y="200.16" width="59.62" height="37.28" style="fill:rgb(176,224,230);stroke:rgb(102,102,102);stroke-width:0.89px;"/>
    </g>
    <g transform="matrix(2.18596e-17,-0.643005,-1,2.18596e-17,318.675,194.911)">
        <rect x="237.03" y="200.16" width="59.62" height="37.28" style="fill:rgb(176,224,230);stroke:rgb(102,102,102);stroke-width:0.89px;"/>
    </g>
    <g transform="matrix(2.18596e-17,-0.643005,-1,2.18596e-17,318.8,257.221)">
        <rect x="274.315" y="200.155" width="59.62" height="37.29" style="fill:rgb(176,224,230);stroke:rgb(102,102,102);stroke-width:0.89px;"/>
    </g>
    <g transform="matrix(2.18596e-17,-0.643005,-1,2.18596e-17,356.085,281.196)">
        <rect x="311.6" y="200.16" width="59.62" height="37.28" style="fill:rgb(176,224,230);stroke:rgb(102,102,102);stroke-width:0.89px;"/>
    </g>
    <g transform="matrix(1,0,0,1,88.9019,27.2472)">
        <text x="0px" y="0px" style="font-family:'Lato-Bold', 'Lato', sans-serif;font-weight:700;font-size:12px;">Schl</text>
    </g>
    <g transform="matrix(1,0,0,1,-243.689,14.7054)">
        <g transform="matrix(1,0,0,1,291.653,49.8777)">
            <text x="0px" y="0px" style="font-family:'Lato-Bold', 'Lato', sans-serif;font-weight:700;font-size:12px;">B</text>
        </g>
        <g transform="matrix(1,0,0,1,299.441,49.8777)">
            <text x="0px" y="0px" style="font-family:'Lato-Bold', 'Lato', sans-serif;font-weight:700;font-size:12px;">r<tspan x="4.302px " y="0px ">e</tspan>m</text>
        </g>
    </g>
    <g transform="matrix(1,0,0,1,-281.469,54.0414)">
        <g transform="matrix(1,0,0,1,291.653,49.8777)">
            <text x="0px" y="0px" style="font-family:'Lato-Bold', 'Lato', sans-serif;font-weight:700;font-size:12px;">NR</text>
        </g>
        <g transform="matrix(1,0,0,1,308.429,49.8777)">
            <text x="0px" y="0px" style="font-family:'Lato-Bold', 'Lato', sans-serif;font-weight:700;font-size:12px;">W</text>
        </g>
    </g>
    <g transform="matrix(1,0,0,1,49.8075,103.919)">
        <text x="0px" y="0px" style="font-family:'Lato-Bold', 'Lato', sans-serif;font-weight:700;font-size:12px;">Nied</text>
    </g>
    <g transform="matrix(1,0,0,1,-242.189,92.371)">
        <g transform="matrix(1,0,0,1,291.653,49.8777)">
            <text x="0px" y="0px" style="font-family:'Lato-Bold', 'Lato', sans-serif;font-weight:700;font-size:12px;">H</text>
        </g>
        <g transform="matrix(1,0,0,1,300.713,49.8777)">
            <text x="0px" y="0px" style="font-family:'Lato-Bold', 'Lato', sans-serif;font-weight:700;font-size:12px;">ess</text>
        </g>
    </g>
    <g transform="matrix(1,0,0,1,50.9641,180.585)">
        <text x="0px" y="0px" style="font-family:'Lato-Bold', 'Lato', sans-serif;font-weight:700;font-size:12px;">Saar</text>
    </g>
    <g transform="matrix(1,0,0,1,84.952,103.919)">
        <text x="0px" y="0px" style="font-family:'Lato-Bold', 'Lato', sans-serif;font-weight:700;font-size:12px;">S.-An</text>
    </g>
    <g transform="matrix(1,0,0,1,-203.751,92.371)">
        <g transform="matrix(1,0,0,1,291.653,49.8777)">
            <text x="0px" y="0px" style="font-family:'Lato-Bold', 'Lato', sans-serif;font-weight:700;font-size:12px;">T</text>
        </g>
        <g transform="matrix(1,0,0,1,298.745,49.8777)">
            <text x="0px" y="0px" style="font-family:'Lato-Bold', 'Lato', sans-serif;font-weight:700;font-size:12px;">hür</text>
        </g>
    </g>
    <g transform="matrix(1,0,0,1,124.534,142.249)">
        <text x="0px" y="0px" style="font-family:'Lato-Bold', 'Lato', sans-serif;font-weight:700;font-size:12px;">Sach</text>
    </g>
    <g transform="matrix(1,0,0,1,-166.619,54.0414)">
        <g transform="matrix(1,0,0,1,291.653,49.8777)">
            <text x="0px" y="0px" style="font-family:'Lato-Bold', 'Lato', sans-serif;font-weight:700;font-size:12px;">B</text>
        </g>
        <g transform="matrix(1,0,0,1,299.441,49.8777)">
            <text x="0px" y="0px" style="font-family:'Lato-Bold', 'Lato', sans-serif;font-weight:700;font-size:12px;">ran</text>
        </g>
    </g>
    <g transform="matrix(1,0,0,1,162.314,103.919)">
        <text x="0px" y="0px" style="font-family:'Lato-Bold', 'Lato', sans-serif;font-weight:700;font-size:12px;">Berl</text>
    </g>
    <g transform="matrix(1,0,0,1,14.7456,142.249)">
        <text x="0px" y="0px" style="font-family:'Lato-Bold', 'Lato', sans-serif;font-weight:700;font-size:12px;">RLP</text>
    </g>
    <g transform="matrix(1,0,0,1,-207.751,14.7054)">
        <g transform="matrix(1,0,0,1,291.653,49.8777)">
            <text x="0px" y="0px" style="font-family:'Lato-Bold', 'Lato', sans-serif;font-weight:700;font-size:12px;">H</text>
        </g>
        <g transform="matrix(1,0,0,1,300.743,49.8777)">
            <text x="0px" y="0px" style="font-family:'Lato-Bold', 'Lato', sans-serif;font-weight:700;font-size:12px;">amb</text>
        </g>
    </g>
    <g transform="matrix(1,0,0,1,-169.255,14.7054)">
        <g transform="matrix(1,0,0,1,291.653,49.8777)">
            <text x="0px" y="0px" style="font-family:'Lato-Bold', 'Lato', sans-serif;font-weight:700;font-size:12px;">M</text>
        </g>
        <g transform="matrix(1,0,0,1,302.807,49.8777)">
            <text x="0px" y="0px" style="font-family:'Lato-Bold', 'Lato', sans-serif;font-weight:700;font-size:12px;">eck</text>
        </g>
    </g>
    <g transform="matrix(1,0,0,1,-207.9,130.707)">
        <g transform="matrix(1,0,0,1,291.653,49.8777)">
            <text x="0px" y="0px" style="font-family:'Lato-Bold', 'Lato', sans-serif;font-weight:700;font-size:12px;">Ba</text>
        </g>
        <g transform="matrix(1,0,0,1,304.943,49.8777)">
            <text x="0px" y="0px" style="font-family:'Lato-Bold', 'Lato', sans-serif;font-weight:700;font-size:12px;">W<tspan x="12.12px " y="0px ">ü</tspan></text>
        </g>
    </g>
    <g transform="matrix(1,0,0,1,-168.751,130.707)">
        <g transform="matrix(1,0,0,1,291.653,49.8777)">
            <text x="0px" y="0px" style="font-family:'Lato-Bold', 'Lato', sans-serif;font-weight:700;font-size:12px;">Ba</text>
        </g>
        <g transform="matrix(1,0,0,1,305.375,49.8777)">
            <text x="0px" y="0px" style="font-family:'Lato-Bold', 'Lato', sans-serif;font-weight:700;font-size:12px;">y<tspan x="6.138px " y="0px ">e</tspan></text>
        </g>
    </g>
</svg>
